# Jungle Cafe textured food stand
mtllib Jungle_Cafe_Stand.mtl
v -3.000146 -0.024768 3.000146
v -3.000146 0.024768 3.000146
v -3.000146 -0.024768 -3.000146
v -3.000146 0.024768 -3.000146
v 3.000146 -0.024768 3.000146
v 3.000146 0.024768 3.000146
v 3.000146 -0.024768 -3.000146
v 3.000146 0.024768 -3.000146
v -2.908584 0.018813 2.79226
v -2.908584 2.018813 2.79226
v -2.746905 0.180492 0.79226
v -2.746905 1.857134 0.79226
v 2.908584 0.018813 2.79226
v 2.908584 2.018813 2.79226
v 2.746905 1.857134 0.79226
v -2.908584 2.018813 0.79226
v -2.908584 0.018813 0.79226
v 2.908584 0.018813 0.79226
v 2.908584 2.018813 0.79226
v 2.746905 0.018813 0.79226
v -2.746905 0.018813 0.79226
v -2.564835 2.01929 1.813191
v -2.611506 2.01929 1.76652
v -2.611506 4.654708 1.76652
v -2.564835 4.654708 1.813191
v -2.611506 2.01929 1.702249
v -2.564835 2.01929 1.655578
v -2.564835 4.654708 1.655578
v -2.611506 4.654708 1.702249
v -2.453893 2.01929 1.76652
v -2.500564 2.01929 1.813191
v -2.500564 4.654708 1.813191
v -2.453893 4.654708 1.76652
v -2.500564 2.01929 1.655578
v -2.453893 2.01929 1.702249
v -2.453893 4.654708 1.702249
v -2.500564 4.654708 1.655578
v 2.564835 2.01929 1.813191
v 2.611506 2.01929 1.76652
v 2.611506 4.654708 1.76652
v 2.564835 4.654708 1.813191
v 2.611506 2.01929 1.702249
v 2.564835 2.01929 1.655578
v 2.564835 4.654708 1.655578
v 2.611506 4.654708 1.702249
v 2.453893 2.01929 1.76652
v 2.500564 2.01929 1.813191
v 2.500564 4.654708 1.813191
v 2.453893 4.654708 1.76652
v 2.500564 2.01929 1.655578
v 2.453893 2.01929 1.702249
v 2.453893 4.654708 1.702249
v 2.500564 4.654708 1.655578
v 3.214146 5.3189 -0.040697
v 3.214146 5.45193 0.014504
v 3.214146 3.855571 3.485836
v 3.214146 3.988601 3.541036
v -2.889212 5.3189 -0.040697
v -2.889212 5.45193 0.014504
v -2.889212 3.855571 3.485836
v -2.889212 3.988601 3.541036
vt 1.0000486666666666 -0.008256
vt 1.0000486666666666 0.008256
vt -1.0000486666666666 0.008256
vt -1.0000486666666666 -0.008256
vt -1.0000486666666666 -0.008256
vt -1.0000486666666666 0.008256
vt 1.0000486666666666 0.008256
vt 1.0000486666666666 -0.008256
vt -1.0000486666666666 -0.008256
vt -1.0000486666666666 0.008256
vt 1.0000486666666666 0.008256
vt 1.0000486666666666 -0.008256
vt 1.0000486666666666 -0.008256
vt 1.0000486666666666 0.008256
vt -1.0000486666666666 0.008256
vt -1.0000486666666666 -0.008256
vt -1.0000486666666666 -1.0000486666666666
vt 1.0000486666666666 -1.0000486666666666
vt 1.0000486666666666 1.0000486666666666
vt -1.0000486666666666 1.0000486666666666
vt 1.0000486666666666 -1.0000486666666666
vt -1.0000486666666666 -1.0000486666666666
vt -1.0000486666666666 1.0000486666666666
vt 1.0000486666666666 1.0000486666666666
vt 0.9307533333333334 0.006271
vt 0.9307533333333334 0.6729376666666668
vt 0.26408666666666664 0.6729376666666668
vt 0.26408666666666664 0.006271
vt 0.26408666666666664 0.006271
vt 0.26408666666666664 0.6729376666666668
vt 0.9307533333333334 0.6729376666666668
vt 0.9307533333333334 0.006271
vt 0.969528 0.006271
vt 0.969528 0.6729376666666668
vt -0.969528 0.6729376666666668
vt -0.969528 0.006271
vt 0.969528 0.26408666666666664
vt -0.969528 0.26408666666666664
vt -0.969528 0.9307533333333334
vt 0.969528 0.9307533333333334
vt 0.915635 0.6190446666666667
vt -0.915635 0.6190446666666667
vt -0.969528 0.6729376666666668
vt 0.969528 0.6729376666666668
vt 0.915635 0.006271
vt 0.915635 0.6190446666666667
vt 0.969528 0.6729376666666668
vt 0.969528 0.006271
vt -0.915635 0.060164
vt -0.915635 0.006271
vt -0.969528 0.006271
vt -0.969528 0.6729376666666668
vt -0.915635 0.6190446666666667
vt 0.05300259999999994 0.0
vt 0.05300259999999994 1.0000000000000002
vt 0.025 1.0000000000000002
vt 0.025 0.0
vt 0.05300259999999994 1.0000000000000002
vt 0.05300259999999994 0.0
vt 0.025 0.0
vt 0.025 1.0000000000000002
vt 0.05300259999999994 1.0000000000000002
vt 0.05300259999999994 0.0
vt 0.025 0.0
vt 0.025 1.0000000000000002
vt 0.025 1.0000000000000002
vt 0.025 0.0
vt 0.05300259999999994 0.0
vt 0.05300259999999994 1.0000000000000002
vt 0.025 -0.12030008142920778
vt 0.05300259999999994 -0.13800922661983783
vt 0.09156520000000007 -0.13800922661983783
vt 0.1195678 -0.12030008142920778
vt 0.1195678 -0.09591267874773554
vt 0.09156520000000007 -0.07820353355710548
vt 0.05300259999999994 -0.07820353355710548
vt 0.025 -0.09591267874773554
vt 0.06356260000000011 0.0
vt 0.06356260000000011 1.0000000000000002
vt 0.025 1.0000000000000002
vt 0.025 0.0
vt 0.06356260000000011 0.0
vt 0.06356260000000011 1.0000000000000002
vt 0.025 1.0000000000000002
vt 0.025 0.0
vt 0.1195678 -0.12030008142920778
vt 0.09156520000000007 -0.13800922661983783
vt 0.05300259999999994 -0.13800922661983783
vt 0.025 -0.12030008142920778
vt 0.025 -0.09591267874773554
vt 0.05300259999999994 -0.07820353355710548
vt 0.09156520000000007 -0.07820353355710548
vt 0.1195678 -0.09591267874773554
vt 0.025 0.0
vt 0.025 1.0000000000000002
vt 0.06356260000000011 1.0000000000000002
vt 0.06356260000000011 0.0
vt 0.025 0.0
vt 0.025 1.0000000000000002
vt 0.06356260000000011 1.0000000000000002
vt 0.06356260000000011 0.0
vt 0.025 0.0
vt 0.05300259999999994 0.0
vt 0.05300259999999994 1.0000000000000002
vt 0.025 1.0000000000000002
vt 0.025 1.0000000000000002
vt 0.05300259999999994 1.0000000000000002
vt 0.05300259999999994 0.0
vt 0.025 0.0
vt 0.05300259999999994 1.0000000000000002
vt 0.025 1.0000000000000002
vt 0.025 0.0
vt 0.05300259999999994 0.0
vt 0.05300259999999994 1.0000000000000002
vt 0.025 1.0000000000000002
vt 0.025 0.0
vt 0.05300259999999994 0.0
vt 0.1195678 -0.12030008142920778
vt 0.1195678 -0.09591267874773554
vt 0.09156520000000007 -0.07820353355710548
vt 0.05300259999999994 -0.07820353355710548
vt 0.025 -0.09591267874773554
vt 0.025 -0.12030008142920778
vt 0.05300259999999994 -0.13800922661983783
vt 0.09156520000000007 -0.13800922661983783
vt 0.06356260000000011 0.0
vt 0.025 0.0
vt 0.025 1.0000000000000002
vt 0.06356260000000011 1.0000000000000002
vt 0.025 0.0
vt 0.06356260000000011 0.0
vt 0.06356260000000011 1.0000000000000002
vt 0.025 1.0000000000000002
vt 0.025 -0.12030008142920778
vt 0.025 -0.09591267874773554
vt 0.05300259999999994 -0.07820353355710548
vt 0.09156520000000007 -0.07820353355710548
vt 0.1195678 -0.09591267874773554
vt 0.1195678 -0.12030008142920778
vt 0.09156520000000007 -0.13800922661983783
vt 0.05300259999999994 -0.13800922661983783
vt 0.06356260000000011 0.0
vt 0.025 0.0
vt 0.025 1.0000000000000002
vt 0.06356260000000011 1.0000000000000002
vt 0.025 0.0
vt 0.06356260000000011 0.0
vt 0.06356260000000011 1.0000000000000002
vt 0.025 1.0000000000000002
vt 1.071382 -0.013565666666666665
vt -0.9630706666666667 -0.013565666666666665
vt -0.9630706666666667 1.1619453333333334
vt 1.071382 1.1619453333333334
vt -0.9630706666666667 0.004834666666666667
vt 1.071382 0.004834666666666667
vt 1.071382 1.1803453333333334
vt -0.9630706666666667 1.1803453333333334
vt 1.071382 1.3295336666666666
vt 1.071382 1.2851903333333332
vt -0.9630706666666667 1.2851903333333332
vt -0.9630706666666667 1.3295336666666666
vt 0.004834666666666667 1.81731
vt -0.013565666666666665 1.7729666666666668
vt 1.1619453333333334 1.2851903333333332
vt 1.1803453333333334 1.3295336666666666
vt -0.9630706666666667 1.81731
vt -0.9630706666666667 1.7729666666666668
vt 1.071382 1.7729666666666668
vt 1.071382 1.81731
vt 1.1803453333333334 1.3295336666666666
vt 1.1619453333333334 1.2851903333333332
vt -0.013565666666666665 1.7729666666666668
vt 0.004834666666666667 1.81731
vn -1.0 -0.0 -0.0
vn -0.0 -0.0 -1.0
vn 1.0 -0.0 -0.0
vn -0.0 -0.0 1.0
vn -0.0 -1.0 -0.0
vn -0.0 1.0 -0.0
vn -1.0 -0.0 -0.0
vn 1.0 -0.0 -0.0
vn -0.0 -0.0 1.0
vn -0.0 1.0 -0.0
vn -0.0 -0.0 -1.0
vn -0.3827 -0.0 0.9239
vn -0.9239 -0.0 0.3827
vn -0.3827 -0.0 -0.9239
vn -0.9239 -0.0 -0.3827
vn 0.9239 -0.0 -0.3827
vn 0.3827 -0.0 -0.9239
vn 0.3827 -0.0 0.9239
vn 0.9239 -0.0 0.3827
vn -0.0 -1.0 -0.0
vn -0.0 1.0 -0.0
vn -0.0 0.9236 0.3833
vn -0.0 -0.9236 -0.3833
vn -0.0 0.3833 -0.9236
vn -1.0 -0.0 -0.0
vn -0.0 -0.3833 0.9236
vn 1.0 -0.0 -0.0
o Cube
usemtl earth
s off
f 1/1/1 2/2/1 4/3/1 3/4/1
f 3/5/2 4/6/2 8/7/2 7/8/2
f 7/9/3 8/10/3 6/11/3 5/12/3
f 5/13/4 6/14/4 2/15/4 1/16/4
f 3/17/5 7/18/5 5/19/5 1/20/5
f 8/21/6 4/22/6 2/23/6 6/24/6
o Cube.001
usemtl wood
s off
f 9/25/7 10/26/7 16/27/7 17/28/7
f 18/29/8 19/30/8 14/31/8 13/32/8
f 13/33/9 14/34/9 10/35/9 9/36/9
f 19/37/10 16/38/10 10/39/10 14/40/10
f 15/41/11 12/42/11 16/43/11 19/44/11
f 20/45/11 15/46/11 19/47/11 18/48/11
f 11/49/11 21/50/11 17/51/11 16/52/11 12/53/11
o Cube.002
usemtl bamboo
s off
f 22/54/12 25/55/12 24/56/13 23/57/13
f 28/58/14 27/59/14 26/60/15 29/61/15
f 36/62/16 35/63/16 34/64/17 37/65/17
f 32/66/18 31/67/18 30/68/19 33/69/19
f 26/70/20 27/71/20 34/72/20 35/73/20 30/74/20 31/75/20 22/76/20 23/77/20
f 23/78/13 24/79/13 29/80/15 26/81/15
f 31/82/18 32/83/18 25/84/12 22/85/12
f 36/86/21 37/87/21 28/88/21 29/89/21 24/90/21 25/91/21 32/92/21 33/93/21
f 27/94/14 28/95/14 37/96/17 34/97/17
f 35/98/16 36/99/16 33/100/19 30/101/19
f 38/102/18 39/103/19 40/104/19 41/105/18
f 44/106/17 45/107/16 42/108/16 43/109/17
f 52/110/15 53/111/14 50/112/14 51/113/15
f 48/114/12 49/115/13 46/116/13 47/117/12
f 42/118/20 39/119/20 38/120/20 47/121/20 46/122/20 51/123/20 50/124/20 43/125/20
f 39/126/19 42/127/16 45/128/16 40/129/19
f 47/130/12 38/131/18 41/132/18 48/133/12
f 52/134/21 49/135/21 48/136/21 41/137/21 40/138/21 45/139/21 44/140/21 53/141/21
f 43/142/17 50/143/14 53/144/14 44/145/17
f 51/146/15 46/147/13 49/148/13 52/149/15
o Cube.003
usemtl canvas
s off
f 54/150/22 58/151/22 60/152/22 56/153/22
f 59/154/23 55/155/23 57/156/23 61/157/23
f 57/158/24 56/159/24 60/160/24 61/161/24
f 55/162/25 54/163/25 56/164/25 57/165/25
f 59/166/26 58/167/26 54/168/26 55/169/26
f 61/170/27 60/171/27 58/172/27 59/173/27
